<svg version="1.1" class="svg" xmlns="http://www.w3.org/2000/svg" xmlns:xlink="http://www.w3.org/1999/xlink" x="0px" y="0px"
	 viewBox="0 0 300 300" xml:space="preserve">
<g>
	<path d="M300,152.3c0,70.8-47.9,130.7-112.5,147.7v-39.8c0-12.4-3.1-29.9-15.7-39.8c40.3-6.3,71.9-30.2,71.9-68
		c0-15.5-6.3-31.1-17.4-43.7c3.2-14.4,5-32.1-1.3-45.1c-16,1.3-31.6,9.5-43.4,16.8c-9.8-2.3-20.2-4.2-31.6-4.2s-21.8,1.8-31.6,4.2
		C106.6,73.1,91,64.9,75,63.5c-6.3,13-4.8,30.6-1.3,45.1c-11.1,12.7-17.4,28.3-17.4,43.7c0,37.8,31.6,61.7,71.9,68
		c-6,4.6-9.8,11-12.2,17.4C84.7,238.4,59.3,213,59,213c-1.5-1.5-3.5-1.8-4.8-0.7c-1.8,1-2.5,3.1-2.1,4.9
		c0.6,1.5,13.2,37.8,60.4,52.2V300C47.9,283.1,0,223.1,0,152.3C0,68.4,66.9,0,150,0C232.6,0,300,68.4,300,152.3z"/>
</g>
</svg>
